# xmcd CD database file
#
# Track frame offsets:
#	150
#	9035
#	26978
#	38756
#	55545
#	70540
#	83332
#	97862
#	112093
#	123515
#	137786
#	153219
#	166764
#	183501
#	196060
#
# Disc length: 2835 seconds
#
# Revision: 1
# Processed by: cddbd v1.5.1PL2 Copyright (c) Steve Scherf et al.
# Submitted via: CDex 1.51
#
DISCID=aa0b110f
DTITLE=Alma Serrana - Nossa Cara
DYEAR=2005
DGENRE=Country
TTITLE0=Alma Serrana - Nossa Cara
TTITLE1=Alma Serrana - Essa Noite é Nossa
TTITLE2=Alma Serrana - Pancadão
TTITLE3=Alma Serrana - Na Mudança da Lua
TTITLE4=Alma Serrana - Cair na Gandaia
TTITLE5=Alma Serrana - Clusinha Branca
TTITLE6=Alma Serrana - Aqui do Meu Lado
TTITLE7=Alma Serrana - Esqueça
TTITLE8=Alma Serrana - Eu Não to Pra Brincadeira
TTITLE9=Alma Serrana - Ve se me Ve
TTITLE10=Alma Serrana - Agarradinho no Forro
TTITLE11=Alma Serrana - Apaixonado
TTITLE12=Alma Serrana - Segura Peão
TTITLE13=Alma Serrana - Me Agarra e me Beija
TTITLE14=Alma Serrana - Combinação Perfeita
EXTD=YEAR: 2005
EXTT0=
EXTT1=
EXTT2=
EXTT3=
EXTT4=
EXTT5=
EXTT6=
EXTT7=
EXTT8=
EXTT9=
EXTT10=
EXTT11=
EXTT12=
EXTT13=
EXTT14=
PLAYORDER=
